<svg xmlns="http://www.w3.org/2000/svg" width="12" height="15" viewBox="0 0 12 15"><path fill="#ed1c24" d="M5.56 1.87c3.14 0 4.54 2.24 4.54 4.46 0 1.96-1.46 4.56-4.35 7.73a.45.45 0 0 1-.06.04.53.53 0 0 1-.06-.04l-.24-.27C3.5 11.73.92 8.91.92 6.33a4.62 4.62 0 0 1 4.64-4.46c2.52 0 0 0 0 0zM0 6.33c0 3.03 2.96 6.13 4.95 8.31 0 .01.33.35.72.35h.04c.4 0 .71-.34.72-.35 1.87-2.04 4.59-5.41 4.59-8.3 0-2.9-1.99-5.35-5.45-5.35C2.55 1 0 3.44 0 6.33zM5.5 4.5a1.8 1.8 0 0 1 1.84 1.75c0 .96-.8 1.77-1.81 1.77s-1.86-.8-1.86-1.77S4.5 4.5 5.51 4.5c1.01 0 0 0 0 0zM2.78 6.27a2.7 2.7 0 0 0 2.76 2.62 2.7 2.7 0 0 0 2.75-2.62 2.7 2.7 0 0 0-2.75-2.63 2.7 2.7 0 0 0-2.76 2.63z"/></svg>