<svg xmlns="http://www.w3.org/2000/svg" width="1321" height="764" viewBox="0 0 1321 764"><path fill="#ed1c24" d="M985.22 117.93c185.25 0 335.43 144.87 335.43 323.02 0 178.15-150.18 322.57-335.43 322.57-185.26 0-335.2-144.42-335.2-322.57s149.94-323.02 335.2-323.02zM659.98 440.95c0 172.93 145.41 313.12 325.24 313.12 179.82 0 325.6-140.19 325.6-313.12 0-172.92-145.78-313.11-325.6-313.11-179.83 0-325.24 140.19-325.24 313.11z"/><path fill="#ed1c24" d="M980 163V0h10v163z"/><path fill="#ed1c24" d="M985.23 143.43c2.9 0 4.72 1.58 4.72 3.54v15.49c0 1.95-1.82 3.54-4.72 3.54-2.89 0-5.24-1.59-5.24-3.54v-15.5c0-1.95 2.35-3.53 5.24-3.53zM.7 445.98V436H695v10z"/><path fill="#ed1c24" d="M675.44 440.75c0-2.9 1.59-4.72 3.54-4.72h15.5c1.95 0 3.53 1.83 3.53 4.72 0 2.9-1.58 5.24-3.54 5.24h-15.49c-1.95 0-3.54-2.35-3.54-5.24z"/></svg>