<svg width="110" height="44" viewBox="0 0 298 121" fill="none" xmlns="http://www.w3.org/2000/svg">
    <path fillRule="evenodd" clipRule="evenodd" d="M0 60.5V121H149H298V60.5V0H149H0V60.5ZM63.545 15.621C68.268 18.716 68.5 20.891 68.5 62C68.5 98.975 68.419 100.639 66.455 104C64.965 106.551 63.218 107.881 60.016 108.904C53.981 110.832 48.446 108.956 45.547 104C43.579 100.635 43.5 98.994 43.5 61.5C43.5 23.992 43.578 22.366 45.549 19C48.905 13.269 57.493 11.656 63.545 15.621ZM93.766 16.311C96.908 19.453 97.993 25.362 97.292 35.5L96.739 43.5L93.619 43.407L90.5 43.314L90 33.012C89.611 24.997 89.142 22.485 87.886 21.696C85.633 20.281 83.149 21.478 81.985 24.539C80.873 27.464 80.786 95.001 81.889 99C82.413 100.901 83.348 101.575 85.79 101.813C90.361 102.26 91 99.769 91 81.498V66.127L87.75 65.813C84.892 65.538 84.462 65.108 84.187 62.25L83.873 59H90.937H98V84V109H95.5C93.84 109 93 108.444 93 107.345C93 105.851 92.808 105.864 91.021 107.481C88.513 109.75 81.923 109.835 78.574 107.64C74.19 104.768 73.863 101.193 74.192 59.822C74.49 22.364 74.566 21.055 76.596 18.322C77.749 16.77 79.774 14.92 81.096 14.211C84.575 12.345 90.838 13.384 93.766 16.311ZM32.343 15.11C36.833 17.156 37.5 20.041 37.5 37.403C37.5 53.48 36.393 59.954 33.629 60.032C33.008 60.049 33.27 60.648 34.211 61.363C37.298 63.709 38 67.921 38 84.097C38 107.626 37.086 109 21.435 109H13V61.5V14H21.453C26.102 14 31.003 14.5 32.343 15.11ZM120.439 15.154C125.86 17.624 126.398 19.806 127.031 41.858C127.352 53.054 127.361 71.079 127.05 81.912C126.305 107.907 125.635 109 110.435 109H103V61.5V14H110.453C114.552 14 119.046 14.519 120.439 15.154ZM149.443 18.25C149.754 20.587 151.363 39.6 153.017 60.5C154.672 81.4 156.301 100.893 156.637 103.818L157.247 109.135L153.374 108.818C149.621 108.51 149.492 108.375 149.259 104.5C149.127 102.3 148.751 97.237 148.424 93.25L147.829 86H142.915H138L137.993 90.75C137.989 93.362 137.699 98.537 137.348 102.25L136.711 109H133.355C130.272 109 130 108.749 130 105.91C130 104.21 132.025 83.451 134.5 59.78C136.975 36.108 139 16.124 139 15.37C139 14.395 140.423 14 143.939 14H148.877L149.443 18.25ZM168.045 14.25C168.07 14.387 170.087 28.405 172.528 45.4C174.969 62.395 177.199 76.532 177.483 76.817C177.767 77.101 178 63.083 178 45.667V14H181H184V61.5V109H180.061C176.129 109 176.121 108.993 175.413 104.25C175.023 101.638 173.017 88.7 170.956 75.5L167.209 51.5L167.104 80.25L167 109H163.5H160V61.5V14H164C166.2 14 168.02 14.113 168.045 14.25ZM195.409 19.75C195.741 22.913 196.678 35.175 197.491 47C199.66 78.564 200.413 86.916 200.734 83C204.529 36.792 206.16 18.084 206.554 16.25C206.939 14.46 207.724 14 210.394 14C213.262 14 213.826 14.4 214.273 16.75C214.561 18.262 216.079 34.575 217.648 53C219.217 71.425 220.608 85.6 220.741 84.5C221.014 82.236 226 16.221 226 14.873C226 14.393 227.575 14 229.5 14C232.457 14 233.003 14.349 233.019 16.25C233.048 19.685 225.945 104.176 225.406 106.806C224.99 108.838 224.434 109.075 220.717 108.806L216.5 108.5L215.354 96.5C214.723 89.9 213.373 74.375 212.354 62C211.334 49.625 210.358 41.075 210.184 43C210.01 44.925 208.66 60.45 207.184 77.5L204.5 108.5L200.283 108.806C196.572 109.075 196.007 108.835 195.569 106.806C195.072 104.501 187.955 19.058 187.984 15.75C187.996 14.429 188.835 14 191.402 14H194.804L195.409 19.75ZM258 17.5V21H251H244V39V57H250H256V60.894V64.788L250.25 64.748L244.5 64.709L244.228 83.354L243.956 102H250.978H258V105.5V109H247.5H237V61.5V14H247.5H258V17.5ZM283.224 16.775C285.391 18.941 285.514 19.877 285.783 36.275C286.029 51.302 285.834 53.947 284.254 57C282.502 60.385 282.503 60.585 284.287 63.084C285.76 65.149 286.247 68.274 286.707 78.623C287.485 96.125 286.619 102.535 282.984 106.17C280.293 108.861 279.708 109 271.077 109H262V61.403V13.807L271.474 14.153C279.735 14.456 281.239 14.791 283.224 16.775ZM20.227 39.25L20.5 57.5L23.201 57.812C24.686 57.983 26.823 57.63 27.951 57.026C29.885 55.991 30 55.034 30 40.036C30 22.226 29.575 21 23.406 21H19.955L20.227 39.25ZM52.035 22.934C51.376 24.167 51 38.161 51 61.5C51 84.839 51.376 98.833 52.035 100.066C53.649 103.081 58.793 102.675 60.025 99.435C61.376 95.881 61.321 25.468 59.965 22.934C58.568 20.325 53.432 20.325 52.035 22.934ZM110.667 21.667C110.3 22.033 110 40.258 110 62.167V102H113.965C116.861 102 118.209 101.479 118.965 100.066C119.624 98.834 120 84.859 120 61.566C120 26.333 119.927 24.927 118 23C116.055 21.055 112.013 20.32 110.667 21.667ZM269 39.5V58H272.378C278.008 58 278.5 56.514 278.5 39.495C278.5 22.481 278.01 21 272.378 21H269V39.5ZM143.091 36C143.02 39.575 142.106 50.375 141.061 60C140.016 69.625 139.518 77.87 139.954 78.323C140.389 78.775 142.259 79 144.109 78.823C148.012 78.448 147.893 82.097 145.043 50C143.949 37.69 143.17 32.097 143.091 36ZM20.667 64.667C20.3 65.033 20 73.608 20 83.721V102.11L24.75 101.805L29.5 101.5L29.774 84.132C29.963 72.17 29.691 66.333 28.902 65.382C27.731 63.971 21.871 63.462 20.667 64.667ZM269 83V102H272.8C274.89 102 277.14 101.46 277.8 100.8C278.635 99.965 279 94.66 279 83.371C279 65.204 278.591 64 272.429 64H269V83Z" fill="#232741" />
</svg>